<?xml version="1.0" standalone="no"?>
<!DOCTYPE svg PUBLIC "-//W3C//DTD SVG 20010904//EN"
 "http://www.w3.org/TR/2001/REC-SVG-20010904/DTD/svg10.dtd">
<svg version="1.0" xmlns="http://www.w3.org/2000/svg"
 width="192.000000pt" height="192.000000pt" viewBox="0 0 192.000000 192.000000"
 preserveAspectRatio="xMidYMid meet">
<metadata>
Created by potrace 1.14, written by Peter Selinger 2001-2017
</metadata>
<g transform="translate(0.000000,192.000000) scale(0.100000,-0.100000)"
fill="#000000" stroke="none">
<path d="M0 1234 c0 -377 4 -684 8 -682 4 2 44 21 88 43 43 22 80 40 81 40 0
0 3 14 6 30 9 51 17 62 66 89 78 42 82 41 193 -94 140 -172 214 -275 274 -381
7 -12 17 -26 23 -32 6 -6 11 -19 11 -29 0 -10 3 -18 8 -18 4 0 12 -10 17 -22
8 -18 21 -24 55 -29 25 -3 68 -17 95 -31 28 -14 66 -30 86 -37 19 -6 51 -27
69 -46 l34 -35 403 0 403 0 0 960 0 960 -960 0 -960 0 0 -686z m1080 538 c3
-4 31 -16 62 -27 31 -10 54 -23 51 -28 -3 -5 0 -7 8 -5 19 7 49 -10 49 -27 0
-8 7 -15 15 -15 8 0 15 -4 15 -9 0 -5 26 -26 58 -46 31 -21 62 -44 69 -52 6
-8 17 -16 25 -17 38 -8 138 -54 138 -64 0 -5 12 -15 27 -23 29 -15 93 -98 120
-153 9 -20 20 -36 24 -36 3 0 13 -14 20 -32 10 -24 10 -33 1 -36 -7 -2 -12
-13 -12 -25 0 -18 2 -19 10 -7 6 9 10 10 10 3 0 -17 -21 -28 -29 -15 -4 6 -25
16 -46 21 -22 5 -30 9 -19 10 22 1 24 14 9 59 -5 13 -15 22 -29 22 -18 0 -21
-6 -21 -44 0 -28 3 -42 10 -38 5 3 4 -2 -3 -11 -14 -17 -8 -57 9 -57 5 0 9 -8
10 -17 0 -15 2 -15 9 2 7 16 9 17 9 3 1 -9 -4 -20 -9 -23 -8 -5 -7 -11 1 -21
6 -7 15 -11 20 -8 14 8 28 -39 17 -53 -7 -9 -3 -15 15 -22 19 -7 24 -15 20
-30 -3 -12 -9 -19 -12 -16 -4 2 -8 -2 -8 -9 0 -8 8 -11 21 -8 17 4 19 2 9 -9
-7 -7 -13 -21 -13 -31 0 -10 -4 -18 -10 -18 -5 0 -10 -9 -10 -20 0 -12 -12
-26 -30 -35 -26 -14 -33 -14 -52 -1 -25 16 -68 15 -108 -1 -27 -11 -50 -7 -50
9 0 5 -4 7 -9 4 -5 -4 -17 -3 -26 0 -12 5 -15 14 -11 35 4 23 2 28 -17 31 -12
2 -26 13 -32 24 -6 12 -17 29 -24 37 -7 9 -10 21 -6 27 11 17 -5 52 -21 46
-19 -7 -54 23 -54 46 0 10 -5 18 -11 18 -11 0 -3 -37 12 -56 5 -6 7 -18 5 -25
-10 -31 -16 -120 -9 -116 5 3 10 -4 10 -15 1 -11 12 -31 24 -44 18 -20 22 -35
21 -80 -1 -31 -4 -66 -8 -78 -6 -20 -5 -20 20 3 l26 24 25 -25 25 -26 -42 -63
c-24 -35 -68 -82 -98 -106 -56 -43 -110 -69 -110 -53 0 5 -14 5 -32 0 -63 -16
-176 -21 -217 -10 -25 6 -48 21 -58 37 -16 24 -16 26 2 39 10 8 27 14 38 14
11 0 17 5 14 13 -2 7 -16 11 -32 9 -48 -5 -74 5 -68 28 3 11 12 20 20 20 8 0
34 14 57 30 28 20 55 31 84 33 23 1 42 6 42 11 0 4 -30 5 -67 1 -52 -5 -73
-13 -92 -31 -13 -14 -27 -20 -30 -15 -4 5 -19 13 -34 16 -15 4 -27 13 -27 19
0 18 62 95 81 101 18 6 35 35 20 35 -13 0 -85 -51 -94 -66 -13 -22 -36 -17
-68 15 -27 27 -29 35 -30 108 -1 43 -4 105 -8 138 l-6 59 -57 14 c-32 8 -58
18 -58 23 0 5 -11 9 -24 9 -28 0 -37 10 -41 47 -1 14 -9 29 -16 34 -9 5 -15
34 -17 83 -4 73 -3 76 27 106 34 35 37 40 19 40 -17 0 -56 59 -60 90 -2 14
-11 36 -20 49 -19 27 -17 52 9 112 17 42 67 84 86 72 22 -13 37 -12 50 6 16
23 125 56 247 74 42 6 264 -3 270 -11z m590 -606 c0 -3 -4 -8 -10 -11 -5 -3
-10 -1 -10 4 0 6 5 11 10 11 6 0 10 -2 10 -4z m-1350 -52 c-6 -15 -6 -24 0
-24 6 0 10 5 10 10 0 6 8 10 18 10 24 0 46 -42 38 -73 -4 -16 -1 -27 7 -30 9
-4 8 -8 -3 -16 -9 -6 -18 -7 -26 0 -33 27 -27 -52 6 -83 22 -21 26 -38 9 -38
-6 0 -9 -9 -6 -20 6 -24 -6 -34 -34 -25 -15 5 -17 10 -9 20 9 11 7 12 -9 8
-23 -6 -25 -2 -22 67 2 42 0 46 -29 59 -31 13 -32 16 -27 57 5 46 41 99 69
101 14 1 15 -3 8 -23z m294 -240 c20 -8 20 -43 0 -93 -15 -38 -16 -39 -34 -21
-68 68 -45 144 34 114z"/>
<path d="M1610 1301 c0 -6 4 -12 8 -15 5 -3 9 1 9 9 0 8 -4 15 -9 15 -4 0 -8
-4 -8 -9z"/>
<path d="M1600 1135 c-10 -12 -10 -15 3 -15 19 0 31 16 18 24 -5 3 -14 -1 -21
-9z"/>
<path d="M790 1108 c-75 -35 -78 -53 -14 -103 48 -36 88 -47 78 -21 -3 8 3 16
15 19 30 7 29 57 0 57 -14 0 -19 5 -16 15 4 8 2 17 -3 20 -5 3 -7 12 -3 20 7
20 -3 18 -57 -7z"/>
<path d="M945 1090 c-3 -5 -1 -10 4 -10 6 0 11 5 11 10 0 6 -2 10 -4 10 -3 0
-8 -4 -11 -10z"/>
<path d="M1690 965 c0 -8 4 -15 10 -15 5 0 7 7 4 15 -4 8 -8 15 -10 15 -2 0
-4 -7 -4 -15z"/>
<path d="M265 739 c-22 -11 -32 -17 -22 -14 31 9 50 -21 44 -68 -6 -46 0 -40
-181 -191 -58 -48 -106 -95 -106 -104 0 -12 6 -10 28 10 15 13 56 46 92 73 36
26 83 64 104 84 35 32 41 29 12 -8 -5 -7 -11 -19 -12 -27 -2 -10 3 -9 21 4 12
9 19 19 14 22 -5 3 4 23 19 44 28 40 35 103 18 153 -7 19 -5 21 16 16 21 -6
22 -5 9 10 -7 9 -14 17 -15 16 0 0 -19 -9 -41 -20z"/>
<path d="M325 710 c3 -5 8 -10 11 -10 2 0 4 5 4 10 0 6 -5 10 -11 10 -5 0 -7
-4 -4 -10z"/>
<path d="M220 669 c0 -5 -5 -7 -11 -3 -8 4 -8 0 0 -15 7 -11 16 -21 21 -21 5
0 7 -8 3 -17 -4 -13 -3 -15 5 -8 10 10 16 36 13 63 -1 15 -31 16 -31 1z"/>
<path d="M331 644 c0 -11 3 -14 6 -6 3 7 2 16 -1 19 -3 4 -6 -2 -5 -13z"/>
<path d="M200 621 c0 -8 -7 -11 -15 -7 -17 6 -81 -19 -77 -30 4 -10 -29 -23
-44 -17 -7 2 -15 0 -19 -6 -3 -6 -2 -11 3 -11 6 0 13 -7 16 -16 5 -12 2 -15
-12 -12 -20 6 -52 -7 -52 -20 0 -14 45 -7 75 12 119 75 146 98 130 114 -3 3
-5 0 -5 -7z"/>
<path d="M213 433 c-13 -8 -23 -20 -23 -25 0 -6 -22 -35 -50 -65 -51 -55 -53
-62 -50 -121 1 -18 -3 -32 -9 -32 -23 0 22 -66 87 -127 81 -79 97 -81 100 -12
1 28 5 55 8 60 9 14 34 -17 36 -45 2 -24 10 -31 31 -27 5 1 11 -7 14 -18 5
-19 14 -20 134 -20 129 -1 153 6 129 34 -7 8 -9 15 -4 15 4 0 3 5 -4 12 -7 7
-12 22 -12 35 0 13 -5 22 -12 21 -9 -2 -12 7 -10 25 1 15 -2 27 -8 27 -5 0
-10 6 -10 14 0 13 -19 25 -42 26 -4 1 -22 7 -40 14 -18 7 -45 12 -60 9 -23 -3
-28 0 -28 17 0 20 -1 20 -27 3 -49 -32 -54 -21 -8 19 25 22 44 42 41 45 -5 5
-42 -14 -68 -36 -12 -10 -18 -10 -18 -3 0 7 4 12 9 12 5 0 21 16 36 36 l27 36
-29 -15 c-16 -9 -35 -23 -42 -31 -7 -9 -17 -13 -22 -10 -5 3 6 24 26 47 33 38
43 57 29 57 -3 0 -12 -7 -20 -15 -24 -23 -35 -18 -24 11 13 32 12 37 0 29 -5
-3 -10 -1 -10 4 0 16 -52 12 -77 -6z"/>
<path d="M461 254 c0 -11 3 -14 6 -6 3 7 2 16 -1 19 -3 4 -6 -2 -5 -13z"/>
<path d="M0 70 l0 -70 97 0 c53 0 94 2 92 4 -24 20 -181 136 -184 136 -3 0 -5
-31 -5 -70z"/>
</g>
</svg>
